<svg width="35" height="35" viewBox="0 0 35 35" fill="none" xmlns="http://www.w3.org/2000/svg">
<path d="M30.3819 7.19449C28.1789 6.6065 26.0266 5.84247 23.9458 4.90976C21.8988 4.02175 19.9226 2.97843 18.0347 1.78893L17.5 1.45837L16.975 1.79865C15.0871 2.98815 13.111 4.03147 11.0639 4.91949C8.97973 5.84936 6.82417 6.61015 4.61806 7.19449L3.88889 7.37921V15.4875C3.88889 28.5056 17.0431 33.3764 17.1694 33.425L17.5 33.5417L17.8306 33.425C17.9667 33.425 31.1111 28.5153 31.1111 15.4875V7.37921L30.3819 7.19449ZM29.1667 15.4875C29.1667 26.182 19.4444 30.6639 17.5 31.4612C15.5556 30.6639 5.83333 26.1723 5.83333 15.4875V8.88615C7.88421 8.29656 9.89179 7.56565 11.8417 6.69865C13.7917 5.85573 15.6821 4.88126 17.5 3.78199C19.3179 4.88126 21.2083 5.85573 23.1583 6.69865C25.1082 7.56565 27.1158 8.29656 29.1667 8.88615V15.4875Z" fill="black"/>
<g clip-path="url(#clip0_102_17)">
<path d="M24.7486 10.4727H23.6993C23.5522 10.4727 23.4126 10.5499 23.3225 10.682L17.1332 19.6426L14.1654 15.345C14.1205 15.2799 14.0633 15.2272 13.998 15.1909C13.9328 15.1547 13.8612 15.1358 13.7886 15.1357H12.7393C12.6387 15.1357 12.5832 15.2678 12.6447 15.357L16.7564 21.3102C16.9486 21.5881 17.3178 21.5881 17.5115 21.3102L24.8432 10.6923C24.9047 10.6048 24.8492 10.4727 24.7486 10.4727V10.4727Z" fill="black"/>
</g>
<defs>
<clipPath id="clip0_102_17">
<rect width="12.25" height="14" fill="white" transform="translate(11.375 7.875)"/>
</clipPath>
</defs>
</svg>
