<svg width="39" height="39" viewBox="0 0 39 39" fill="none" xmlns="http://www.w3.org/2000/svg">
<path d="M19.5 33C14.8125 33 10.6687 30.6 8.25 27C8.30625 23.25 15.75 21.1875 19.5 21.1875C23.25 21.1875 30.6937 23.25 30.75 27C29.5104 28.8458 27.836 30.3584 25.8742 31.4047C23.9124 32.451 21.7234 32.9988 19.5 33V33ZM19.5 6.375C20.9918 6.375 22.4226 6.96763 23.4775 8.02252C24.5324 9.07742 25.125 10.5082 25.125 12C25.125 13.4918 24.5324 14.9226 23.4775 15.9775C22.4226 17.0324 20.9918 17.625 19.5 17.625C18.0082 17.625 16.5774 17.0324 15.5225 15.9775C14.4676 14.9226 13.875 13.4918 13.875 12C13.875 10.5082 14.4676 9.07742 15.5225 8.02252C16.5774 6.96763 18.0082 6.375 19.5 6.375V6.375ZM19.5 0.75C17.0377 0.75 14.5995 1.23498 12.3247 2.17726C10.0498 3.11953 7.98285 4.50065 6.24175 6.24175C2.72544 9.75805 0.75 14.5272 0.75 19.5C0.75 24.4728 2.72544 29.2419 6.24175 32.7582C7.98285 34.4993 10.0498 35.8805 12.3247 36.8227C14.5995 37.765 17.0377 38.25 19.5 38.25C24.4728 38.25 29.2419 36.2746 32.7582 32.7582C36.2746 29.2419 38.25 24.4728 38.25 19.5C38.25 9.13125 29.8125 0.75 19.5 0.75Z" fill="black"/>
</svg>
