<svg width="19" height="26" viewBox="0 0 19 26" fill="none" xmlns="http://www.w3.org/2000/svg">
<path d="M9.49941 0.749634C7.22104 0.752673 5.03676 1.76771 3.42571 3.57209C1.81466 5.37647 0.908376 7.82286 0.905663 10.3746C0.905663 18.6102 8.71816 24.8309 9.05078 25.0916C9.18234 25.1945 9.33894 25.2497 9.49941 25.2497C9.65988 25.2497 9.81648 25.1945 9.94804 25.0916C10.2807 24.8309 18.0932 18.6102 18.0932 10.3746C18.0904 7.82286 17.1842 5.37647 15.5731 3.57209C13.9621 1.76771 11.7778 0.752673 9.49941 0.749634V0.749634ZM9.49999 6.87496C10.1181 6.87496 10.7222 7.08023 11.2362 7.46482C11.7501 7.8494 12.1506 8.39603 12.3871 9.03557C12.6236 9.67511 12.6855 10.3788 12.5649 11.0578C12.4444 11.7367 12.1467 12.3604 11.7097 12.8498C11.2727 13.3393 10.7158 13.6727 10.1097 13.8077C9.50346 13.9428 8.87513 13.8734 8.30411 13.6085C7.73309 13.3436 7.24503 12.895 6.90165 12.3195C6.55827 11.7439 6.375 11.0672 6.375 10.375C6.375 9.4467 6.70424 8.55647 7.29029 7.90009C7.87634 7.24371 8.67119 6.87496 9.49999 6.87496V6.87496Z" fill="#699BF7"/>
</svg>
